<svg xmlns="http://www.w3.org/2000/svg" version="1.1" xmlns:xlink="http://www.w3.org/1999/xlink" xmlns:svgjs="http://svgjs.com/svgjs" width="118.76" height="118.78"><svg xmlns="http://www.w3.org/2000/svg" width="118.76" height="118.78" viewBox="0 0 118.76 118.78">
  <defs>
    <style>
      path {
        fill: rgb(255,55,15);
      }
    </style>
  </defs>

          <path class="cls-1" d="M11.9,95.06v0S11.9,95.05,11.9,95.06Z"></path>
          <path class="cls-1" d="M116.54,43.24a64.11,64.11,0,0,0-5.15-12.5,60.82,60.82,0,0,0-7.24-10.47,58,58,0,0,0-9.47-8.71A60.48,60.48,0,0,0,83.84,5.32a59.11,59.11,0,0,0-35-4.38,58.81,58.81,0,0,0-22,8.79A59.93,59.93,0,0,0,8.93,28.13,58.87,58.87,0,0,0,3.09,40.7a64,64,0,0,0-1.83,6.78A51.43,51.43,0,0,0,.22,54,62.59,62.59,0,0,0,.44,66.64a46.78,46.78,0,0,0,2,9.49,57.28,57.28,0,0,0,2,5.78c.19.44.36,1,1.06,2.43.3.62.6,1.35.86,1.77l.52,1a36.65,36.65,0,0,1-1.15-5c-.19-1.17-.11-.81-.27-2C4.9,76,4.41,71,4.23,66.79c-.09-2.36-.1-4.72-.06-7.07,0-2,.13-4,.35-5.94.25-2.15.63-4.28,1.05-6.4a66.93,66.93,0,0,1,1.81-7A51.59,51.59,0,0,1,13.13,28a40.67,40.67,0,0,1,9.33-10.16A25.92,25.92,0,0,1,34,12.76a24.17,24.17,0,0,1,6.47-.12,22.59,22.59,0,0,1,6.38,1.57,11.68,11.68,0,0,1,4.43,3.27A12.19,12.19,0,0,1,53.72,23c.9,5-2,9.54-5,13.36A79.49,79.49,0,0,1,38,47.37C36,49.21,33.84,51,31.75,52.84c-1.05.9-2.09,1.82-3.13,2.74-.88.78-1.76,1.56-2.56,2.42a15.12,15.12,0,0,0-3.3,5.18,14.75,14.75,0,0,0-.54,6.7A27,27,0,0,0,24.05,77a34.53,34.53,0,0,0,3.36,6.18,37.27,37.27,0,0,0,8.41,9A38.43,38.43,0,0,0,46.57,97.8,47.65,47.65,0,0,0,53,99.49c1.37.27,2.75.51,4.13.8a9.4,9.4,0,0,1,3.14,1c1.69,1,2.12,3.34,1.64,5.16a5.75,5.75,0,0,1-3.61,4c-2.47.87-5.21.29-7.62-.5A33.57,33.57,0,0,1,44,106.79a56.1,56.1,0,0,1-6-4.23c-1.83-1.44-11.28-11-13.57-14.75a48.93,48.93,0,0,1-5.28-12.12A30,30,0,0,1,17.9,69a19.4,19.4,0,0,1,.68-6.25A18.14,18.14,0,0,1,21.4,57a44.65,44.65,0,0,1,5.25-5.58c2-1.92,4-3.82,6-5.72a52.33,52.33,0,0,0,5.14-5.39,18.53,18.53,0,0,0,3.57-6.53A9.55,9.55,0,0,0,40.78,27,8.3,8.3,0,0,0,37,23.28a9.44,9.44,0,0,0-5.57-.69,18.75,18.75,0,0,0-3,.84c-.95.33-1.88.71-2.79,1.13a26.67,26.67,0,0,0-5,2.94,24.25,24.25,0,0,0-7.19,8.79A42.9,42.9,0,0,0,9.87,50.87a57.84,57.84,0,0,0,.28,16.62,79,79,0,0,0,5,15.36c.9,2.16,1.93,4.28,2.71,6.48.11.31.34.88.42,1.2.15.56.24.91.34,1.44a4.2,4.2,0,0,1-.1,2.25,2.93,2.93,0,0,1-2.42,1.84,5,5,0,0,1-2.74-.26,8.63,8.63,0,0,1-1.44-.74c.11.13.94,1.21,1.11,1.43.38.47.8,1,1.19,1.44a60.22,60.22,0,0,0,9.09,8.61A59.16,59.16,0,0,0,46,117.25,57.53,57.53,0,0,0,59,118.78a60.89,60.89,0,0,0,14.19-1.58,57.42,57.42,0,0,0,13.46-5,56.5,56.5,0,0,0,13.17-9.68c3.11-2.9,7.42-10.11,7.59-14.75.13-3.69-.39-7.61-2.44-10.68a7,7,0,0,0-2.71-2.62A1.78,1.78,0,0,0,100,75c-.26.47-.51,1-.73,1.44a10.41,10.41,0,0,1-.55,1.11,2.35,2.35,0,0,1-.93.92,2.3,2.3,0,0,1-1.42.19A2.75,2.75,0,0,1,94.28,77a13.89,13.89,0,0,1-.65-1.77,7.61,7.61,0,0,0-.72-1.69c-.25-.44-.55-1.07-1.13-1a.67.67,0,0,0-.4.18,3.36,3.36,0,0,0-.81,1,7.4,7.4,0,0,0-.63,1.76c-.16.62-.35,1.24-.51,1.86A6.58,6.58,0,0,1,88,80.57a1.87,1.87,0,0,1-2.36.11,3.57,3.57,0,0,1-1.15-1.2A3.46,3.46,0,0,1,84,77.82a14.35,14.35,0,0,1,.28-3.52A16.85,16.85,0,0,1,87.17,68a5.75,5.75,0,0,1,2.25-2.07,4.31,4.31,0,0,1,2.65-.31A4.91,4.91,0,0,1,94.55,67a13.79,13.79,0,0,1,1.92,3.11,11.53,11.53,0,0,1,1.22-1.65A5.21,5.21,0,0,1,100.17,67a5.05,5.05,0,0,1,2.83.19A6.87,6.87,0,0,1,105.67,69a18.84,18.84,0,0,1,1.75,2.42,11.2,11.2,0,0,0,2,2.31c1.76,1.48,3.31,2.59,5.25,1.62s2.82-4.78,2.9-5.17c.22-1.14.4-2,.7-4.58C118.64,62.65,119.75,55,116.54,43.24ZM38.31,78.91c-4.75,0-8.6-5.19-8.6-11.6s3.85-11.59,8.6-11.59,8.61,5.19,8.61,11.59S43.07,78.91,38.31,78.91Zm15.53-.81a22.27,22.27,0,0,1-1.31,3.81,19.12,19.12,0,0,1-.94,1.72,9,9,0,0,1-1.06,1.55A2.53,2.53,0,0,1,48,86a2.94,2.94,0,0,1-2-1.75A4.54,4.54,0,0,1,46.52,81c.51-1.23,1.08-2.45,1.71-3.63S49.5,75.15,50.08,74a36.73,36.73,0,0,0,1.53-3.46,46.43,46.43,0,0,0,3-14.78,92.85,92.85,0,0,0-1.19-16.81c0-.38-.1-.77-.14-1.16a13.13,13.13,0,0,1-.06-2.26A3.7,3.7,0,0,1,54.38,33a2.76,2.76,0,0,1,3.27-.12,3.71,3.71,0,0,1,1.69,1.63,16.2,16.2,0,0,1,1.22,4.56A34.28,34.28,0,0,1,60.85,46a80.88,80.88,0,0,1-2.63,15.74Q56.12,69.93,53.84,78.1Zm11.39,3.29a9.71,9.71,0,0,1-.38,2,3.88,3.88,0,0,1-.61,1.36,2.93,2.93,0,0,1-4.42.1,6.3,6.3,0,0,1-1-3,12.47,12.47,0,0,1-.13-1.73A23.72,23.72,0,0,1,59,77.6c.39-2.29.73-4.59,1.19-6.86.55-2.73,1.17-5.45,1.77-8.16s1.23-5.48,1.9-8.21a81.57,81.57,0,0,1,2.24-8,72.4,72.4,0,0,1,3.28-7.44,18.16,18.16,0,0,1,1.88-3.07,15.62,15.62,0,0,1,1.12-1.32c.36-.39.78-.71,1.15-1.09a5.69,5.69,0,0,1,1.48-1A4,4,0,0,1,76.7,32a2.79,2.79,0,0,1,2.58,1.75,3.25,3.25,0,0,1,.28,1.51,4.94,4.94,0,0,1-.5,1.68,25.83,25.83,0,0,1-1.9,3.51c-1.41,2.19-2.89,4.33-4.23,6.56a68.07,68.07,0,0,0-3.67,6.84A48.27,48.27,0,0,0,65,69.06a45.39,45.39,0,0,0,0,8.16c.06.7.12,1.4.16,2.1A15.85,15.85,0,0,1,65.23,81.39ZM81,80.65a6.17,6.17,0,0,1-1.4,1,10.7,10.7,0,0,1-1.59.79,9,9,0,0,1-3.41.65,5.94,5.94,0,0,1-2.87-.66,6.45,6.45,0,0,1-2.07-1.82A6.07,6.07,0,0,1,68.58,75a8.94,8.94,0,0,1,2-3c.42-.48.86-.94,1.29-1.4.22-.24.42-.49.66-.71l.7-.59a6.38,6.38,0,0,1-3.36-2.44,5.61,5.61,0,0,1-.23-4,9.57,9.57,0,0,1,1.55-3,11.19,11.19,0,0,1,2.4-2.36A9.83,9.83,0,0,1,76.37,56,7,7,0,0,1,78,55.65a5.19,5.19,0,0,1,1.67.06,2.43,2.43,0,0,1,1.27.83,1.39,1.39,0,0,1,.21,1.26A2.06,2.06,0,0,1,80.34,59,7.39,7.39,0,0,1,78.8,60c-1.18.56-2.42,1-3.63,1.48a5.34,5.34,0,0,0-2.66,1.68,1.94,1.94,0,0,0,.57,2.5,5.42,5.42,0,0,0,3.2.61,12.83,12.83,0,0,1,2.4.12,2.1,2.1,0,0,1,1,.45,1.23,1.23,0,0,1,.2,1.28,1.49,1.49,0,0,1-.67.73c-.37.24-.72.51-1.07.79a20.71,20.71,0,0,0-2.57,2.29,9.72,9.72,0,0,0-1.88,3.05,5.93,5.93,0,0,0-.52,1.79,1.32,1.32,0,0,0,.39,1.08,1.44,1.44,0,0,0,1.23.21,6.86,6.86,0,0,0,1.82-.67c.55-.29,1.05-.65,1.59-.94a2.12,2.12,0,0,1,1.12-.33,1.43,1.43,0,0,1,.89.46,5.39,5.39,0,0,1,1,1.35A2.41,2.41,0,0,1,81,80.65Z"></path>
        <path class="cls-1" d="M36.08,71.54a2.9,2.9,0,0,0,4.69-.14c1.9-2.35,1.66-7-.48-9.16a2.82,2.82,0,0,0-4.57.28c-.74,1.11-2.61,5.72.36,9"></path>
</svg><style>@media (prefers-color-scheme: light) { :root { filter: none; } }
</style></svg>